<svg width="299" height="299" viewBox="0 0 299 299" fill="none" xmlns="http://www.w3.org/2000/svg">
<path d="M299 149.5C299 232.067 232.067 299 149.5 299C66.9334 299 0 232.067 0 149.5C0 66.9334 66.9334 0 149.5 0C232.067 0 299 66.9334 299 149.5Z" fill="url(#paint0_linear_10101_138)"/>
<g filter="url(#filter0_d_10101_138)">
<path d="M39.3554 168.717V131.435H47.0783V161.9H67.4772V168.717H39.3554ZM72.7995 168.717V131.435H91.4941C93.9441 131.435 96.0923 131.932 97.9386 132.926C99.8205 133.92 101.294 135.305 102.359 137.08C103.425 138.82 103.957 140.844 103.957 143.152C103.957 145.354 103.425 147.324 102.359 149.064C101.294 150.804 99.8205 152.171 97.9386 153.165C96.0568 154.159 93.9086 154.656 91.4941 154.656H80.5223V168.717H72.7995ZM80.5223 148.265H90.6419C92.3107 148.265 93.6423 147.804 94.6365 146.88C95.6662 145.957 96.181 144.732 96.181 143.205C96.181 141.643 95.6662 140.4 94.6365 139.477C93.6423 138.554 92.3107 138.092 90.6419 138.092H80.5223V148.265Z" fill="#0774ED"/>
<path d="M39.3554 168.717V131.435H47.0783V161.9H67.4772V168.717H39.3554ZM72.7995 168.717V131.435H91.4941C93.9441 131.435 96.0923 131.932 97.9386 132.926C99.8205 133.92 101.294 135.305 102.359 137.08C103.425 138.82 103.957 140.844 103.957 143.152C103.957 145.354 103.425 147.324 102.359 149.064C101.294 150.804 99.8205 152.171 97.9386 153.165C96.0568 154.159 93.9086 154.656 91.4941 154.656H80.5223V168.717H72.7995ZM80.5223 148.265H90.6419C92.3107 148.265 93.6423 147.804 94.6365 146.88C95.6662 145.957 96.181 144.732 96.181 143.205C96.181 141.643 95.6662 140.4 94.6365 139.477C93.6423 138.554 92.3107 138.092 90.6419 138.092H80.5223V148.265Z" fill="url(#paint1_linear_10101_138)" fill-opacity="0.2"/>
<path d="M113 115.507C113 116.012 113.165 116.181 113.677 116.181H227.92C231.943 116.181 233.793 116.867 234.63 118.064C235.456 118.921 236.298 120.636 236.298 124.743V175.232C236.298 181.91 234.454 183.627 227.92 183.627H113.677C113.165 183.627 113 183.797 113 184.318V203.141C113 207.078 115.686 209.824 119.546 209.824H231.778C253.248 209.824 263.981 198.87 263.981 176.781V123.028C263.981 100.954 253.248 90 231.778 90H119.546C118.196 90 117.023 90.3384 115.852 91.1965L114.518 92.3898C114.007 92.8952 113.677 93.5847 113.51 94.1071C113.33 94.2753 113.33 94.4439 113.33 94.7812C113.165 95.9898 113 96.4953 113 96.6635V115.507Z" fill="#0774ED"/>
<path d="M113 115.507C113 116.012 113.165 116.181 113.677 116.181H227.92C231.943 116.181 233.793 116.867 234.63 118.064C235.456 118.921 236.298 120.636 236.298 124.743V175.232C236.298 181.91 234.454 183.627 227.92 183.627H113.677C113.165 183.627 113 183.797 113 184.318V203.141C113 207.078 115.686 209.824 119.546 209.824H231.778C253.248 209.824 263.981 198.87 263.981 176.781V123.028C263.981 100.954 253.248 90 231.778 90H119.546C118.196 90 117.023 90.3384 115.852 91.1965L114.518 92.3898C114.007 92.8952 113.677 93.5847 113.51 94.1071C113.33 94.2753 113.33 94.4439 113.33 94.7812C113.165 95.9898 113 96.4953 113 96.6635V115.507Z" fill="url(#paint2_linear_10101_138)" fill-opacity="0.2"/>
</g>
<defs>
<filter id="filter0_d_10101_138" x="23.7555" y="78.4" width="255.825" height="151.023" filterUnits="userSpaceOnUse" color-interpolation-filters="sRGB">
<feFlood flood-opacity="0" result="BackgroundImageFix"/>
<feColorMatrix in="SourceAlpha" type="matrix" values="0 0 0 0 0 0 0 0 0 0 0 0 0 0 0 0 0 0 127 0" result="hardAlpha"/>
<feOffset dy="4"/>
<feGaussianBlur stdDeviation="7.8"/>
<feComposite in2="hardAlpha" operator="out"/>
<feColorMatrix type="matrix" values="0 0 0 0 1 0 0 0 0 1 0 0 0 0 1 0 0 0 0.15 0"/>
<feBlend mode="normal" in2="BackgroundImageFix" result="effect1_dropShadow_10101_138"/>
<feBlend mode="normal" in="SourceGraphic" in2="effect1_dropShadow_10101_138" result="shape"/>
</filter>
<linearGradient id="paint0_linear_10101_138" x1="109.5" y1="29.5" x2="261" y2="266.5" gradientUnits="userSpaceOnUse">
<stop stop-color="#0C0C35"/>
<stop offset="1" stop-color="#0D266A"/>
</linearGradient>
<linearGradient id="paint1_linear_10101_138" x1="71" y1="112.717" x2="93" y2="188" gradientUnits="userSpaceOnUse">
<stop stop-color="white" stop-opacity="0"/>
<stop offset="1" stop-color="white"/>
</linearGradient>
<linearGradient id="paint2_linear_10101_138" x1="188.491" y1="90" x2="250.5" y2="210" gradientUnits="userSpaceOnUse">
<stop stop-color="white" stop-opacity="0"/>
<stop offset="1" stop-color="white"/>
</linearGradient>
</defs>
</svg>
