<svg width="52" height="51" viewBox="0 0 52 51" fill="none" xmlns="http://www.w3.org/2000/svg">
<circle cx="26.8252" cy="25.1748" r="25.1748" fill="white"/>
<path d="M30.9997 6.54904C31.7573 6.0068 32.6388 5.66317 33.5635 5.54953C36.342 5.20344 38.7812 7.03927 39.5082 9.49914C39.7893 10.445 39.8001 11.4506 39.5395 12.4023C39.1077 13.998 38.0418 15.3755 37.1577 16.7469C36.5741 17.6527 35.7874 19.9992 35.7368 22.3028C35.7056 23.6981 35.7575 25.094 35.8094 26.4899C35.8786 28.4428 36.4222 32.6522 36.5416 34.5979C36.7794 38.4954 34.4647 40.0657 31.9704 40.8799L31.8817 40.9055C29.3384 41.5505 26.5835 41.45 24.7028 38.0284C23.7625 36.3204 21.9703 32.4756 20.9883 30.7842C20.2855 29.5695 19.584 28.369 18.8119 27.2064C17.5379 25.2865 15.621 23.7304 14.6407 23.2717C13.1622 22.586 11.5234 21.9905 10.3055 20.8726C9.57696 20.2073 9.04912 19.3514 8.78176 18.4017C8.08544 15.9373 9.16994 13.0809 11.6963 11.8847C12.5376 11.4817 13.4669 11.297 14.3984 11.3476C15.3299 11.3982 16.2336 11.6824 17.0264 12.1741C18.5349 13.119 19.3697 14.674 19.5769 16.4151C19.7648 17.9886 19.8765 19.606 20.2189 21.0648C20.7453 23.2697 21.7069 25.3471 23.0473 27.1751C24.2606 28.8404 25.6488 29.9934 27.8071 29.7134C28.0866 29.6675 28.3632 29.6049 28.6352 29.5259C28.791 29.4706 29.3434 29.2917 29.4896 29.2231C31.4639 28.3077 32.0129 26.5936 32.1541 24.5476C32.31 22.2866 32.0127 20.0173 31.2794 17.8729C30.7877 16.4515 30.0181 15.0261 29.3353 13.5989C28.5803 12.0178 28.4544 10.256 29.2265 8.65349C29.6324 7.81482 30.242 7.09129 30.9997 6.54904Z" fill="#0D0D0D"/>
<circle cx="43.6084" cy="22.3777" r="4.1958" fill="#D9D9D9"/>
<mask id="mask0_29_1812" style="mask-type:alpha" maskUnits="userSpaceOnUse" x="39" y="18" width="9" height="9">
<circle cx="43.6084" cy="22.3777" r="4.1958" fill="#D9D9D9"/>
</mask>
<g mask="url(#mask0_29_1812)">
<circle cx="41.5105" cy="21.6783" r="4.8951" fill="#B4B4B4"/>
</g>
<circle cx="20.5315" cy="6.2937" r="2.0979" fill="#D9D9D9"/>
<mask id="mask1_29_1812" style="mask-type:alpha" maskUnits="userSpaceOnUse" x="18" y="4" width="5" height="5">
<circle cx="20.5315" cy="6.2937" r="2.0979" fill="#D9D9D9"/>
</mask>
<g mask="url(#mask1_29_1812)">
<circle cx="19.1329" cy="6.2937" r="2.0979" fill="#B4B4B4"/>
</g>
<circle cx="24.3079" cy="46.4336" r="1.3986" transform="rotate(76.9372 24.3079 46.4336)" fill="#D9D9D9"/>
<mask id="mask2_29_1812" style="mask-type:alpha" maskUnits="userSpaceOnUse" x="22" y="45" width="4" height="3">
<circle cx="24.3079" cy="46.4336" r="1.3986" transform="rotate(76.9372 24.3079 46.4336)" fill="#D9D9D9"/>
</mask>
<g mask="url(#mask2_29_1812)">
<circle cx="24.0973" cy="45.5254" r="1.3986" transform="rotate(76.9372 24.0973 45.5254)" fill="#B4B4B4"/>
</g>
<circle cx="47.8042" cy="29.3705" r="1.3986" fill="#D9D9D9"/>
<mask id="mask3_29_1812" style="mask-type:alpha" maskUnits="userSpaceOnUse" x="46" y="27" width="4" height="4">
<circle cx="47.8042" cy="29.3705" r="1.3986" fill="#D9D9D9"/>
</mask>
<g mask="url(#mask3_29_1812)">
<ellipse cx="46.4057" cy="30.0698" rx="1.3986" ry="2.0979" fill="#B4B4B4"/>
</g>
<g opacity="0.5">
<circle cx="25.5962" cy="19.75" r="2.0979" transform="rotate(44.7195 25.5962 19.75)" fill="#D9D9D9"/>
<mask id="mask4_29_1812" style="mask-type:alpha" maskUnits="userSpaceOnUse" x="23" y="17" width="5" height="5">
<circle cx="25.5962" cy="19.75" r="2.0979" transform="rotate(44.7195 25.5962 19.75)" fill="#D9D9D9"/>
</mask>
<g mask="url(#mask4_29_1812)">
<ellipse cx="23.3674" cy="19.0193" rx="2.0979" ry="3.14685" transform="rotate(44.7195 23.3674 19.0193)" fill="#B4B4B4"/>
</g>
</g>
<circle cx="43.6084" cy="34.9649" r="2.7972" fill="#D9D9D9"/>
<mask id="mask5_29_1812" style="mask-type:alpha" maskUnits="userSpaceOnUse" x="40" y="32" width="7" height="6">
<circle cx="43.6084" cy="34.9649" r="2.7972" fill="#D9D9D9"/>
</mask>
<g mask="url(#mask5_29_1812)">
<circle cx="43.6084" cy="33.5662" r="2.7972" fill="#B4B4B4"/>
</g>
<path d="M16.9234 0.829058L17.8704 1.11411C18.1216 1.18971 18.3324 1.36199 18.4566 1.59304C18.7151 2.07418 18.5346 2.67378 18.0534 2.93228L13.6356 5.30584C13.1545 5.56434 12.5549 5.38386 12.2964 4.90271C12.1722 4.67166 12.145 4.40076 12.2206 4.1496L12.5056 3.20261C12.6125 2.84742 12.8562 2.54925 13.1829 2.3737L15.8584 0.936259C16.1851 0.760703 16.5683 0.722142 16.9234 0.829058Z" fill="white"/>
<path d="M50.291 13.6411L50.1231 14.443C50.0471 14.806 49.83 15.124 49.5195 15.327L48.8338 15.7753L45.0071 9.9223L45.6928 9.47397C46.0032 9.27099 46.3816 9.19965 46.7447 9.27565L47.5466 9.44351C47.9097 9.51951 48.2277 9.73663 48.4306 10.0471L50.0926 12.5892C50.2956 12.8996 50.367 13.278 50.291 13.6411Z" fill="white"/>
<path d="M32.6573 50.1734L31.9353 49.7861C31.6085 49.6107 31.3647 49.3127 31.2576 48.9576L31.021 48.1732L37.716 46.1538L37.9526 46.9381C38.0597 47.2933 38.0214 47.6764 37.846 48.0033L37.4587 48.7252C37.2833 49.052 36.9853 49.2959 36.6302 49.403L33.7224 50.28C33.3673 50.3872 32.9841 50.3488 32.6573 50.1734Z" fill="white"/>
<path d="M5.61959 39.8547L5.6815 39.0377C5.70953 38.6679 5.88334 38.3243 6.1647 38.0826L6.78614 37.5487L11.3432 42.853L10.7217 43.3869C10.4404 43.6286 10.0745 43.7486 9.70463 43.7206L8.88769 43.6587C8.51782 43.6307 8.17424 43.4569 7.93252 43.1755L5.95334 40.8718C5.71162 40.5904 5.59157 40.2245 5.61959 39.8547Z" fill="white"/>
<path d="M2.03517 15.0048L2.75078 14.6059C3.07477 14.4253 3.45724 14.3808 3.81405 14.4822L4.60213 14.7061L2.69068 21.4328L1.9026 21.2089C1.54579 21.1075 1.24388 20.8685 1.06327 20.5445L0.664361 19.8289C0.483754 19.5049 0.43925 19.1224 0.54064 18.7656L1.37081 15.8441C1.4722 15.4873 1.71118 15.1854 2.03517 15.0048Z" fill="white"/>
<circle cx="9.34265" cy="30.0698" r="2.0979" fill="#D9D9D9"/>
<mask id="mask6_29_1812" style="mask-type:alpha" maskUnits="userSpaceOnUse" x="7" y="27" width="5" height="6">
<circle cx="9.34265" cy="30.0698" r="2.0979" fill="#D9D9D9"/>
</mask>
<g mask="url(#mask6_29_1812)">
<circle cx="10.7412" cy="30.0698" r="2.0979" fill="#B4B4B4"/>
</g>
<circle cx="16.3357" cy="37.0629" r="3.4965" fill="#D9D9D9"/>
<mask id="mask7_29_1812" style="mask-type:alpha" maskUnits="userSpaceOnUse" x="12" y="33" width="8" height="8">
<circle cx="16.3357" cy="37.0629" r="3.4965" fill="#D9D9D9"/>
</mask>
<g mask="url(#mask7_29_1812)">
<circle cx="14.9372" cy="35.6642" r="3.4965" fill="#B4B4B4"/>
</g>
</svg>
